<?xml version="1.0" standalone="no"?>
<!DOCTYPE svg PUBLIC "-//W3C//DTD SVG 20010904//EN"
 "http://www.w3.org/TR/2001/REC-SVG-20010904/DTD/svg10.dtd">
<svg version="1.0" xmlns="http://www.w3.org/2000/svg"
 width="531.000000pt" height="271.000000pt" viewBox="0 0 531.000000 271.000000"
 preserveAspectRatio="xMidYMid meet">

<g transform="translate(0.000000,271.000000) scale(0.100000,-0.100000)"
fill="#000000" stroke="none">
<path d="M1420 2196 c-310 -55 -595 -205 -727 -381 -265 -352 -166 -819 223
-1051 378 -226 794 -259 1489 -119 190 38 446 110 457 128 4 7 8 56 8 109 0
87 -2 97 -20 103 -10 3 -27 2 -37 -3 -30 -16 -224 -79 -310 -101 -115 -30
-334 -61 -423 -61 -158 0 -325 38 -450 100 -334 167 -406 576 -147 832 121
119 300 184 544 195 147 7 252 -4 431 -43 103 -23 319 -91 363 -115 10 -5 25
-6 33 -3 13 5 16 24 16 104 0 112 -6 123 -73 141 -23 6 -78 21 -122 34 -157
45 -377 90 -595 121 -148 21 -563 27 -660 10z m540 -37 c224 -18 569 -86 805
-157 l60 -18 3 -78 c3 -72 1 -78 -15 -72 -172 66 -407 126 -577 147 -203 25
-453 -11 -611 -86 -296 -143 -418 -481 -273 -759 48 -91 164 -202 261 -249
107 -51 222 -83 358 -98 99 -11 132 -10 254 5 164 20 345 62 497 116 l108 38
0 -79 c0 -43 -1 -79 -3 -79 -1 0 -56 -16 -121 -35 -416 -122 -976 -185 -1266
-140 -180 27 -362 92 -514 185 -291 176 -415 506 -305 810 80 219 271 383 569
488 221 78 401 92 770 61z"/>
<path d="M1936 1713 c-18 -38 -246 -570 -246 -577 0 -3 18 -6 41 -6 43 0 43
-1 21 -58 -3 -10 12 -12 68 -10 l72 3 26 63 26 62 154 -2 154 -3 26 -62 26
-63 68 0 c37 0 68 3 68 8 0 25 -251 587 -263 590 -8 2 -21 17 -28 35 -7 18
-18 35 -23 39 -6 4 -48 8 -93 8 -80 0 -83 -1 -97 -27z m174 -17 c0 -2 3 -11 6
-20 5 -14 -3 -16 -54 -16 l-60 0 -104 -242 c-87 -204 -107 -244 -126 -246 -12
-2 -22 0 -22 3 0 4 50 123 111 266 l111 259 69 0 c38 0 69 -2 69 -4z m28 -244
c17 -42 32 -80 32 -85 0 -4 -34 -7 -75 -7 -41 0 -75 2 -75 4 0 2 12 30 26 62
14 33 30 69 35 82 5 12 12 22 16 22 5 0 23 -35 41 -78z m65 -152 c5 -19 0 -20
-104 -20 -84 0 -109 3 -109 13 0 24 12 27 111 27 88 0 97 -2 102 -20z"/>
<path d="M2410 1675 l0 -65 40 0 c38 0 40 -2 40 -30 l0 -30 85 0 85 0 0 -210
0 -210 40 0 c39 0 40 -1 40 -35 l0 -35 80 0 80 0 0 245 0 245 120 0 120 0 0
55 0 55 -40 0 -40 0 0 40 0 40 -325 0 -325 0 0 -65z m610 5 c0 -19 -7 -20
-252 -20 -139 0 -270 -3 -290 -6 -36 -6 -38 -5 -38 20 l0 26 290 0 c283 0 290
0 290 -20z m-280 -320 l0 -190 -25 0 -25 0 0 190 0 190 25 0 25 0 0 -190z"/>
<path d="M3195 1728 c-3 -7 -4 -144 -3 -303 l3 -290 43 -3 c41 -3 42 -4 42
-38 l0 -34 80 0 80 0 0 120 0 120 165 0 c181 0 215 8 268 58 58 55 73 128 41
194 -18 36 -145 145 -196 168 -47 21 -515 28 -523 8z m520 -47 l40 -19 -237
-1 -238 -1 0 -245 0 -245 -25 0 -25 0 0 265 0 265 223 0 c197 0 227 -3 262
-19z m-25 -140 c0 -5 -9 -19 -19 -32 -18 -22 -28 -24 -125 -27 l-106 -4 0 36
0 36 125 0 c69 0 125 -4 125 -9z m80 -32 c16 -28 12 -48 -15 -74 -23 -24 -28
-25 -170 -25 -138 0 -145 1 -145 20 0 19 7 20 100 20 114 0 150 12 175 60 16
32 38 32 55 -1z"/>
<path d="M3180 766 l0 -156 30 0 29 0 3 113 3 112 29 -112 c28 -110 29 -113
56 -113 28 0 29 2 57 118 l28 117 3 -117 3 -118 29 0 30 0 0 155 0 155 -48 0
-48 0 -23 -95 c-13 -52 -26 -95 -30 -95 -5 0 -19 42 -32 93 l-25 92 -47 3 -47
3 0 -155z"/>
<path d="M3530 895 c0 -23 4 -25 45 -25 l45 0 0 -130 0 -130 30 0 30 0 0 130
0 130 45 0 c41 0 45 2 45 25 l0 25 -120 0 -120 0 0 -25z"/>
<path d="M3831 892 c-53 -52 -50 -213 4 -259 28 -25 74 -30 107 -12 30 16 48
70 48 144 0 74 -18 128 -48 144 -37 20 -82 13 -111 -17z m89 -38 c8 -9 13 -43
13 -89 0 -77 -11 -105 -43 -105 -22 0 -40 47 -40 105 0 86 36 131 70 89z"/>
<path d="M4079 905 c-34 -18 -55 -71 -32 -79 27 -11 40 -6 51 19 15 33 59 35
71 3 11 -30 -9 -69 -53 -103 -40 -30 -86 -94 -86 -118 0 -15 13 -17 100 -17
l100 0 0 30 0 30 -61 0 -61 0 61 59 c55 53 61 63 61 99 0 56 -25 83 -80 88
-29 3 -55 -1 -71 -11z"/>
</g>
</svg>
